<svg xmlns="http://www.w3.org/2000/svg" xmlns:xlink="http://www.w3.org/1999/xlink" xmlns:fi="http://pattern.flaticon.com/" x="0" y="0" width="700" height="350" viewBox="0 0 700 350"><rect x="0px" y="0px" width="100%" height="100%" opacity="1" fill="#ffffff"/><defs><g transform="matrix(0.04850884899497032 0 0 0.04850884899497032 199 48.0000000181908)" fill="#231f20" id="L1_0"><path d="m226.761719 412.738281c34.15625 0 61.84375-27.6875 61.84375-61.84375-.097657-2.484375-.347657-4.964843-.742188-7.421875l60.957031-30.632812c24.464844 23.738281 63.542969 23.148437 87.277344-1.3125 11.203125-11.546875 17.457032-27.007813 17.425782-43.09375-.097657-2.484375-.347657-4.960938-.742188-7.421875l60.960938-30.628907c24.308593 23.679688 63.214843 23.171876 86.902343-1.136718 6.265625-6.4375 11.046875-14.167969 14.003907-22.65625h48.8125c11.132812 32.066406 46.152343 49.035156 78.210937 37.902344 8.542969-2.96875 16.332031-7.785157 22.804687-14.109376l60.957032 30.628907c-.429688 2.457031-.707032 4.933593-.84375 7.421875-.066406 34.089844 27.523437 61.773437 61.609375 61.832031 16.085937.027344 31.546875-6.222656 43.09375-17.429687l60.957031 30.636718c-.398438 2.457032-.640625 4.933594-.742188 7.421875-.171874 34.324219 27.515626 62.292969 61.835938 62.464844 34.332031.175781 62.292969-27.511719 62.46875-61.835937.171875-34.328126-27.515625-62.292969-61.835938-62.46875-16.214843-.082032-31.816406 6.171874-43.480468 17.4375l-60.960938-30.632813c.394532-2.460937.644532-4.933594.742188-7.425781.0625-34.082032-27.519532-61.769532-61.609375-61.828125-16.085938-.027344-31.546875 6.222656-43.09375 17.429687l-60.957031-30.636718c.394531-2.453126.640624-4.933594.742187-7.421876.0625-34.074218-27.507813-61.75-61.585937-61.816406-26.21875-.046875-49.597657 16.472656-58.3125 41.203125h-48.8125c-11.320313-32.144531-46.554688-49.019531-78.695313-37.699219-24.722656 8.714844-41.25 32.09375-41.199219 58.3125.101563 2.484376.347656 4.964844.742188 7.421876l-60.957032 30.628906c-24.464843-23.730469-63.539062-23.144532-87.277343 1.3125-11.203125 11.546875-17.457031 27.007812-17.425781 43.09375.097656 2.492187.347656 4.964844.742187 7.425781l-60.957031 30.632813c-24.527344-23.777344-63.679688-23.167969-87.453125 1.355468-23.773438 24.523438-23.164063 63.675782 1.359375 87.453125 11.585937 11.230469 27.101562 17.484375 43.234375 17.4375zm824.589843-82.460937c11.382813 0 20.613282 9.230468 20.613282 20.617187s-9.230469 20.613281-20.613282 20.613281c-11.386718 0-20.617187-9.226562-20.617187-20.613281s9.230469-20.617187 20.617187-20.617187zm-164.917968-82.457032c11.386718 0 20.613281 9.230469 20.613281 20.613282 0 11.386718-9.226563 20.617187-20.613281 20.617187-11.386719 0-20.617188-9.230469-20.617188-20.617187 0-11.382813 9.230469-20.613282 20.617188-20.613282zm-164.917969-82.457031c11.386719 0 20.613281 9.226563 20.613281 20.613281 0 11.386719-9.226562 20.613282-20.613281 20.613282s-20.617187-9.226563-20.617187-20.613282c0-11.386718 9.230468-20.613281 20.617187-20.613281zm-164.917969 0c11.386719 0 20.613282 9.226563 20.613282 20.613281 0 11.386719-9.226563 20.613282-20.613282 20.613282-11.386718 0-20.613281-9.226563-20.613281-20.613282 0-11.386718 9.226563-20.613281 20.613281-20.613281zm-164.917968 82.457031c11.386718 0 20.613281 9.230469 20.613281 20.613282 0 11.386718-9.226563 20.617187-20.613281 20.617187-11.386719 0-20.613282-9.230469-20.613282-20.617187 0-11.382813 9.226563-20.613282 20.613282-20.613282zm-164.917969 82.457032c11.386719 0 20.613281 9.230468 20.613281 20.617187s-9.226562 20.613281-20.613281 20.613281-20.613281-9.226562-20.613281-20.613281 9.226562-20.617187 20.613281-20.617187zm0 0" fill="#27a2ab"/><path d="m1175.039062.445312h-1113.195312c-34.15625 0-61.84375 27.691407-61.84375 61.84375v742.128907c0 34.15625 27.6875 61.84375 61.84375 61.84375h350.449219c56.902343.070312 103.007812 46.179687 103.074219 103.074219-.101563 56.886718-46.1875 102.96875-103.074219 103.074218-.265625 0-.515625.144532-.78125.164063-2.632813.414062-5.230469 1.019531-7.773438 1.816406-1.222656.664063-2.386719 1.445313-3.464843 2.328125-1.039063.667969-2.019532 1.429688-2.921876 2.269531-1.535156 2.179688-2.910156 4.46875-4.125 6.839844 0 .25-.289062.417969-.371093.683594l-41.230469 123.691406c-3.59375 10.796875 2.242188 22.472656 13.046875 26.070313 2.058594.6875 4.222656 1.042968 6.394531 1.054687h494.75c11.386719-.007813 20.613282-9.246094 20.601563-20.628906 0-2.207031-.355469-4.402344-1.054688-6.496094l-41.230469-123.691406c0-.265625-.285156-.433594-.371093-.683594-.589844-1.34375-1.320313-2.617187-2.183594-3.808594-1.035156-2.273437-2.789063-4.140625-4.988281-5.320312-1.0625-.882813-2.210938-1.65625-3.421875-2.308594-1.082031-.394531-2.191407-.703125-3.324219-.925781-1.449219-.46875-2.953125-.769532-4.46875-.890625-.289062 0-.519531-.164063-.78125-.164063-56.886719-.105468-102.976562-46.1875-103.074219-103.074218.070313-56.894532 46.171875-103.003907 103.074219-103.074219h350.445312c34.15625 0 61.847657-27.6875 61.847657-61.84375v-742.128907c-.003907-34.152343-27.691407-61.84375-61.847657-61.84375zm-494.753906 968.890626c.097656 73.800781 55.789063 135.664062 129.175782 143.503906l27.742187 83.257812h-437.523437l27.742187-83.257812c73.398437-7.820313 129.097656-69.699219 129.175781-143.503906.007813-38.824219-15.6875-76.003907-43.519531-103.074219h210.726563c-27.832032 27.070312-43.527344 64.25-43.519532 103.074219zm515.367188-164.917969c0 11.386719-9.226563 20.613281-20.613282 20.613281h-1113.195312c-11.386719 0-20.613281-9.226562-20.613281-20.613281v-61.84375h1154.421875zm-1154.421875-103.074219v-639.054688c0-11.382812 9.226562-20.617187 20.613281-20.617187h1113.195312c11.386719 0 20.613282 9.234375 20.613282 20.617187v639.054688zm0 0" fill="#27a2ab"/><path d="m1113.195312 474.582031c0-11.378906-9.230468-20.613281-20.617187-20.613281h-82.457031c-11.386719 0-20.613282 9.234375-20.613282 20.613281v144.304688h-41.230468v-226.761719c0-11.386719-9.230469-20.617188-20.617188-20.617188h-82.457031c-11.386719 0-20.613281 9.230469-20.613281 20.617188v226.761719h-41.230469v-309.222657c0-11.386718-9.230469-20.613281-20.613281-20.613281h-82.460938c-11.378906 0-20.613281 9.226563-20.613281 20.613281v309.222657h-41.226563v-309.222657c0-11.386718-9.234374-20.613281-20.613281-20.613281h-82.460937c-11.382813 0-20.613282 9.226563-20.613282 20.613281v309.222657h-41.234374v-226.761719c0-11.386719-9.230469-20.617188-20.613282-20.617188h-82.460937c-11.386719 0-20.613281 9.230469-20.613281 20.617188v226.761719h-41.230469v-144.304688c0-11.378906-9.226563-20.613281-20.613281-20.613281h-82.460938c-11.382812 0-20.613281 9.234375-20.613281 20.613281v144.304688h-41.230469v-535.984375h-41.230469v556.597656c0 11.386719 9.230469 20.613281 20.617188 20.613281h1051.351562v-41.226562h-41.230469zm-907.046874 144.304688v-123.691407h41.226562v123.691407zm164.917968 0v-206.148438h41.226563v206.148438zm164.917969 0v-288.609375h41.226563v288.609375zm164.914063 0v-288.609375h41.230468v288.609375zm164.917968 0v-206.148438h41.230469v206.148438zm164.917969 0v-123.691407h41.230469v123.691407zm0 0" fill="#27a2ab"/></g><g transform="matrix(-0.11718635261058807 0 0 0.11718635261058807 69.9994125366211 -24.999998912821866)" id="L1_1"><path d="M224,170.669h-42.667c-5.888,0-10.667,4.779-10.667,10.667v128c0,5.888,4.779,10.667,10.667,10.667H224     c5.888,0,10.667-4.779,10.667-10.667v-128C234.667,175.448,229.888,170.669,224,170.669z" fill="#2b9eab"/><path d="M138.667,234.669H96c-5.888,0-10.667,4.779-10.667,10.667v64c0,5.888,4.779,10.667,10.667,10.667h42.667     c5.888,0,10.667-4.779,10.667-10.667v-64C149.333,239.448,144.555,234.669,138.667,234.669z" fill="#2b9eab"/><path d="M309.333,106.669h-42.667c-5.888,0-10.667,4.779-10.667,10.667v192c0,5.888,4.779,10.667,10.667,10.667h42.667     c5.888,0,10.667-4.779,10.667-10.667v-192C320,111.448,315.221,106.669,309.333,106.669z" fill="#2b9eab"/><path d="M505.749,475.587L378.411,348.248c30.123-36.779,48.256-83.755,48.256-134.912c0-117.632-95.701-213.333-213.333-213.333     S0,95.704,0,213.336s95.701,213.333,213.333,213.333c51.157,0,98.133-18.133,134.912-48.256l127.339,127.339     c4.16,4.16,9.621,6.251,15.083,6.251s10.923-2.091,15.083-6.251C514.091,497.411,514.091,483.928,505.749,475.587z      M213.333,384.003c-94.101,0-170.667-76.565-170.667-170.667S119.232,42.669,213.333,42.669S384,119.235,384,213.336     S307.435,384.003,213.333,384.003z" fill="#2b9eab"/></g><g transform="matrix(-0.125 0 0 0.125 125 182)" id="L1_2"><path d="M240,0C107.452,0,0,107.452,0,240s107.452,240,240,240s240-107.452,240-240C479.85,107.514,372.486,0.15,240,0z M240,464    C116.288,464,16,363.712,16,240S116.288,16,240,16s224,100.288,224,224C463.859,363.653,363.653,463.859,240,464z" fill="#269bab"/><path d="M240,32C125.125,32,32,125.125,32,240s93.125,208,208,208s208-93.125,208-208C447.872,125.178,354.822,32.128,240,32z     M240,432c-106.039,0-192-85.961-192-192S133.961,48,240,48s192,85.961,192,192C431.877,345.987,345.987,431.877,240,432z" fill="#269bab"/><rect x="56px" y="232px" width="32px" height="16px" fill="#269bab"/><rect x="392px" y="232px" width="32px" height="16px" fill="#269bab"/><rect x="78px" y="316px" width="32px" height="16px" transform="matrix(0.8661 -0.4999 0.4999 0.8661 -149.3202 90.6366)" fill="#269bab"/><rect x="369px" y="147px" width="32px" height="16px" transform="matrix(0.8661 -0.4999 0.4999 0.8661 -26.3534 213.606)" fill="#269bab"/><rect x="86px" y="140px" width="16px" height="32px" transform="matrix(0.4999 -0.8661 0.8661 0.4999 -87.8498 159.8599)" fill="#269bab"/><rect x="377px" y="307px" width="16px" height="32px" transform="matrix(0.4999 -0.8661 0.8661 0.4999 -87.8083 495.888)" fill="#269bab"/><rect x="147px" y="78px" width="16px" height="32px" transform="matrix(0.8661 -0.4999 0.4999 0.8661 -26.355 90.6278)" fill="#269bab"/><rect x="232px" y="56px" width="16px" height="32px" fill="#269bab"/><rect x="307px" y="86px" width="32px" height="16px" transform="matrix(0.4999 -0.8661 0.8661 0.4999 80.1741 327.8656)" fill="#269bab"/><rect x="65px" y="183px" width="16px" height="24px" transform="matrix(0.2588 -0.9659 0.9659 0.2588 -134.0715 216.2285)" fill="#269bab"/><rect x="398px" y="272px" width="16px" height="24px" transform="matrix(0.2588 -0.9659 0.9659 0.2588 26.191 603.1256)" fill="#269bab"/><rect x="110px" y="106px" width="16px" height="24px" transform="matrix(0.7071 -0.7071 0.7071 0.7071 -49.0314 118.3792)" fill="#269bab"/><rect x="187px" y="61px" width="16px" height="24px" transform="matrix(0.9659 -0.2588 0.2588 0.9659 -12.4583 53.1039)" fill="#269bab"/><rect x="272px" y="65px" width="24px" height="16px" transform="matrix(0.2588 -0.9659 0.9659 0.2588 139.4867 329.5905)" fill="#269bab"/><rect x="349px" y="110px" width="24px" height="16px" transform="matrix(0.7071 -0.7071 0.7071 0.7071 22.1981 290.3847)" fill="#269bab"/><rect x="394px" y="187px" width="24px" height="16px" transform="matrix(0.9659 -0.2588 0.2588 0.9659 -36.7521 111.7907)" fill="#269bab"/><rect x="61px" y="276px" width="24px" height="16px" transform="matrix(0.9659 -0.2588 0.2588 0.9659 -71.1225 28.8121)" fill="#269bab"/><path d="M273.943,108.367c-72.737-18.735-146.889,25.041-165.625,97.777c-8.876,34.46-3.893,71.027,13.882,101.855    c2.324,3.757,7.255,4.919,11.012,2.594c3.598-2.226,4.841-6.869,2.836-10.594c-33.098-57.418-13.382-130.795,44.036-163.893    c57.418-33.098,130.795-13.382,163.893,44.036c15.681,27.203,20.075,59.468,12.24,89.873c-1.105,4.281,1.471,8.647,5.752,9.752    c4.281,1.105,8.647-1.471,9.752-5.752v-0.024C390.456,201.255,346.679,127.103,273.943,108.367z" fill="#269bab"/><path d="M357.064,297.808l-88-72c-0.24-0.147-0.489-0.281-0.744-0.4c-8.031-15.689-27.259-21.897-42.947-13.866    c-15.689,8.031-21.897,27.259-13.866,42.947c5.159,10.078,15.271,16.668,26.573,17.319l111.2,39.72    c0.872,0.316,1.793,0.476,2.72,0.472c4.418-0.001,7.999-3.583,7.999-8.002C359.998,301.599,358.921,299.327,357.064,297.808z     M240,256c-8.837,0-16-7.163-16-16s7.163-16,16-16s16,7.163,16,16S248.837,256,240,256z M261.8,263.296    c4.423-4.143,7.571-9.464,9.072-15.336l40.328,32.952L261.8,263.296z" fill="#269bab"/><path d="M272,320h-64c-22.091,0-40,17.909-40,40c0,22.091,17.909,40,40,40h64c22.091,0,40-17.909,40-40    C312,337.909,294.091,320,272,320z M272,384h-64c-13.255,0-24-10.745-24-24s10.745-24,24-24h64c13.255,0,24,10.745,24,24    S285.255,384,272,384z" fill="#269bab"/><path d="M224,352h-16c-4.418,0-8,3.582-8,8s3.582,8,8,8h16c4.418,0,8-3.582,8-8S228.418,352,224,352z" fill="#269bab"/><path d="M272,352h-16c-4.418,0-8,3.582-8,8s3.582,8,8,8h16c4.418,0,8-3.582,8-8S276.418,352,272,352z" fill="#269bab"/></g><g transform="matrix(0.1171872690320015 0 0 0.1171872690320015 214 244)" id="L1_5"><path d="M457.637,134.681c-29.976,0-54.363,24.387-54.363,54.363c0,10.933,3.255,21.114,8.831,29.647l-58.733,58.733    c-8.534-5.576-18.715-8.831-29.648-8.831c-11.329,0-21.858,3.488-30.576,9.441l-59.338-59.347    c5.575-8.533,8.828-18.713,8.828-29.644c0-29.976-24.387-54.363-54.363-54.363c-29.976,0-54.363,24.387-54.363,54.363    c0,10.931,3.254,21.108,8.827,29.641L84.004,277.42c-8.532-5.574-18.711-8.827-29.641-8.827C24.387,268.593,0,292.981,0,322.957    s24.387,54.363,54.363,54.363c29.976,0,54.363-24.387,54.363-54.363c0-10.933-3.255-21.114-8.831-29.648l58.733-58.733    c8.534,5.576,18.715,8.831,29.648,8.831c10.932,0,21.113-3.255,29.646-8.831l59.666,59.674    c-5.206,8.338-8.226,18.174-8.226,28.706c0,29.976,24.387,54.363,54.363,54.363s54.363-24.387,54.363-54.363    c0-10.931-3.254-21.109-8.827-29.641l58.736-58.736c8.533,5.574,18.712,8.827,29.641,8.827c29.976,0,54.363-24.387,54.363-54.363    C512.001,159.066,487.613,134.681,457.637,134.681z M54.363,354.849c-17.586,0-31.893-14.307-31.893-31.892    c0-17.586,14.307-31.893,31.893-31.893c17.585,0,31.893,14.307,31.893,31.893C86.256,340.542,71.949,354.849,54.363,354.849z     M188.276,220.936c-17.585,0-31.893-14.307-31.893-31.893c0-17.585,14.307-31.893,31.893-31.893    c17.586,0,31.893,14.307,31.893,31.893C220.169,206.629,205.862,220.936,188.276,220.936z M323.724,354.849    c-17.585,0-31.893-14.307-31.893-31.893s14.307-31.893,31.893-31.893c17.585,0,31.893,14.307,31.893,31.893    C355.616,340.542,341.309,354.849,323.724,354.849z M457.637,220.936c-17.585,0-31.893-14.307-31.893-31.893    c0-17.585,14.307-31.893,31.893-31.893c17.585,0,31.893,14.307,31.893,31.893C489.53,206.629,475.222,220.936,457.637,220.936z" fill="#269bab"/><path d="M176.774,272.717c-4.388-4.387-11.501-4.387-15.889,0l-22.854,22.854c-4.387,4.387-4.387,11.501,0.001,15.889    c2.194,2.194,5.069,3.291,7.944,3.291s5.751-1.098,7.944-3.291l22.854-22.854C181.163,284.219,181.163,277.104,176.774,272.717z" fill="#269bab"/><path d="M373.962,200.939c-4.388-4.387-11.5-4.387-15.89,0.001l-22.854,22.854c-4.387,4.387-4.387,11.501,0,15.889    c2.195,2.193,5.07,3.29,7.945,3.29c2.876,0,5.75-1.098,7.944-3.291l22.854-22.854C378.349,212.44,378.349,205.326,373.962,200.939    z" fill="#269bab"/></g></defs><g fi:class="KUsePattern" opacity="0.2"><pattern id="pattern_L1_0" width="350" height="350" patternUnits="userSpaceOnUse"><use xlink:href="#L1_0" x="-350" y="-350"/><use xlink:href="#L1_0" x="0" y="-350"/><use xlink:href="#L1_0" x="350" y="-350"/><use xlink:href="#L1_0" x="-350" y="0"/><use xlink:href="#L1_0" x="0" y="0"/><use xlink:href="#L1_0" x="350" y="0"/><use xlink:href="#L1_0" x="-350" y="350"/><use xlink:href="#L1_0" x="0" y="350"/><use xlink:href="#L1_0" x="350" y="350"/></pattern><rect x="0" y="0" width="100%" height="100%" fill="url(#pattern_L1_0)"/></g><g fi:class="KUsePattern" opacity="0.2"><pattern id="pattern_L1_1" width="350" height="350" patternUnits="userSpaceOnUse"><use xlink:href="#L1_1" x="-350" y="-350"/><use xlink:href="#L1_1" x="0" y="-350"/><use xlink:href="#L1_1" x="350" y="-350"/><use xlink:href="#L1_1" x="-350" y="0"/><use xlink:href="#L1_1" x="0" y="0"/><use xlink:href="#L1_1" x="350" y="0"/><use xlink:href="#L1_1" x="-350" y="350"/><use xlink:href="#L1_1" x="0" y="350"/><use xlink:href="#L1_1" x="350" y="350"/></pattern><rect x="0" y="0" width="100%" height="100%" fill="url(#pattern_L1_1)"/></g><g fi:class="KUsePattern" opacity="0.19"><pattern id="pattern_L1_2" width="350" height="350" patternUnits="userSpaceOnUse"><use xlink:href="#L1_2" x="-350" y="-350"/><use xlink:href="#L1_2" x="0" y="-350"/><use xlink:href="#L1_2" x="350" y="-350"/><use xlink:href="#L1_2" x="-350" y="0"/><use xlink:href="#L1_2" x="0" y="0"/><use xlink:href="#L1_2" x="350" y="0"/><use xlink:href="#L1_2" x="-350" y="350"/><use xlink:href="#L1_2" x="0" y="350"/><use xlink:href="#L1_2" x="350" y="350"/></pattern><rect x="0" y="0" width="100%" height="100%" fill="url(#pattern_L1_2)"/></g><g fi:class="KUsePattern" opacity="0.2"><pattern id="pattern_L1_5" width="350" height="350" patternUnits="userSpaceOnUse"><use xlink:href="#L1_5" x="-350" y="-350"/><use xlink:href="#L1_5" x="0" y="-350"/><use xlink:href="#L1_5" x="350" y="-350"/><use xlink:href="#L1_5" x="-350" y="0"/><use xlink:href="#L1_5" x="0" y="0"/><use xlink:href="#L1_5" x="350" y="0"/><use xlink:href="#L1_5" x="-350" y="350"/><use xlink:href="#L1_5" x="0" y="350"/><use xlink:href="#L1_5" x="350" y="350"/></pattern><rect x="0" y="0" width="100%" height="100%" fill="url(#pattern_L1_5)"/></g></svg>