<svg xmlns="http://www.w3.org/2000/svg" xmlns:xlink="http://www.w3.org/1999/xlink" xmlns:fi="http://pattern.flaticon.com/" x="0" y="0" width="700" height="350" viewBox="0 0 700 350"><rect x="0px" y="0px" width="100%" height="100%" opacity="1" fill="#ffffff"/><defs><g transform="matrix(-0.04850884899497032 0 0 0.04850884899497032 216.95693735778332 43.00000003638161)" fill="#231f20" id="L1_0"><path d="m226.761719 412.738281c34.15625 0 61.84375-27.6875 61.84375-61.84375-.097657-2.484375-.347657-4.964843-.742188-7.421875l60.957031-30.632812c24.464844 23.738281 63.542969 23.148437 87.277344-1.3125 11.203125-11.546875 17.457032-27.007813 17.425782-43.09375-.097657-2.484375-.347657-4.960938-.742188-7.421875l60.960938-30.628907c24.308593 23.679688 63.214843 23.171876 86.902343-1.136718 6.265625-6.4375 11.046875-14.167969 14.003907-22.65625h48.8125c11.132812 32.066406 46.152343 49.035156 78.210937 37.902344 8.542969-2.96875 16.332031-7.785157 22.804687-14.109376l60.957032 30.628907c-.429688 2.457031-.707032 4.933593-.84375 7.421875-.066406 34.089844 27.523437 61.773437 61.609375 61.832031 16.085937.027344 31.546875-6.222656 43.09375-17.429687l60.957031 30.636718c-.398438 2.457032-.640625 4.933594-.742188 7.421875-.171874 34.324219 27.515626 62.292969 61.835938 62.464844 34.332031.175781 62.292969-27.511719 62.46875-61.835937.171875-34.328126-27.515625-62.292969-61.835938-62.46875-16.214843-.082032-31.816406 6.171874-43.480468 17.4375l-60.960938-30.632813c.394532-2.460937.644532-4.933594.742188-7.425781.0625-34.082032-27.519532-61.769532-61.609375-61.828125-16.085938-.027344-31.546875 6.222656-43.09375 17.429687l-60.957031-30.636718c.394531-2.453126.640624-4.933594.742187-7.421876.0625-34.074218-27.507813-61.75-61.585937-61.816406-26.21875-.046875-49.597657 16.472656-58.3125 41.203125h-48.8125c-11.320313-32.144531-46.554688-49.019531-78.695313-37.699219-24.722656 8.714844-41.25 32.09375-41.199219 58.3125.101563 2.484376.347656 4.964844.742188 7.421876l-60.957032 30.628906c-24.464843-23.730469-63.539062-23.144532-87.277343 1.3125-11.203125 11.546875-17.457031 27.007812-17.425781 43.09375.097656 2.492187.347656 4.964844.742187 7.425781l-60.957031 30.632813c-24.527344-23.777344-63.679688-23.167969-87.453125 1.355468-23.773438 24.523438-23.164063 63.675782 1.359375 87.453125 11.585937 11.230469 27.101562 17.484375 43.234375 17.4375zm824.589843-82.460937c11.382813 0 20.613282 9.230468 20.613282 20.617187s-9.230469 20.613281-20.613282 20.613281c-11.386718 0-20.617187-9.226562-20.617187-20.613281s9.230469-20.617187 20.617187-20.617187zm-164.917968-82.457032c11.386718 0 20.613281 9.230469 20.613281 20.613282 0 11.386718-9.226563 20.617187-20.613281 20.617187-11.386719 0-20.617188-9.230469-20.617188-20.617187 0-11.382813 9.230469-20.613282 20.617188-20.613282zm-164.917969-82.457031c11.386719 0 20.613281 9.226563 20.613281 20.613281 0 11.386719-9.226562 20.613282-20.613281 20.613282s-20.617187-9.226563-20.617187-20.613282c0-11.386718 9.230468-20.613281 20.617187-20.613281zm-164.917969 0c11.386719 0 20.613282 9.226563 20.613282 20.613281 0 11.386719-9.226563 20.613282-20.613282 20.613282-11.386718 0-20.613281-9.226563-20.613281-20.613282 0-11.386718 9.226563-20.613281 20.613281-20.613281zm-164.917968 82.457031c11.386718 0 20.613281 9.230469 20.613281 20.613282 0 11.386718-9.226563 20.617187-20.613281 20.617187-11.386719 0-20.613282-9.230469-20.613282-20.617187 0-11.382813 9.226563-20.613282 20.613282-20.613282zm-164.917969 82.457032c11.386719 0 20.613281 9.230468 20.613281 20.617187s-9.226562 20.613281-20.613281 20.613281-20.613281-9.226562-20.613281-20.613281 9.226562-20.617187 20.613281-20.617187zm0 0" fill="#000000"/><path d="m1175.039062.445312h-1113.195312c-34.15625 0-61.84375 27.691407-61.84375 61.84375v742.128907c0 34.15625 27.6875 61.84375 61.84375 61.84375h350.449219c56.902343.070312 103.007812 46.179687 103.074219 103.074219-.101563 56.886718-46.1875 102.96875-103.074219 103.074218-.265625 0-.515625.144532-.78125.164063-2.632813.414062-5.230469 1.019531-7.773438 1.816406-1.222656.664063-2.386719 1.445313-3.464843 2.328125-1.039063.667969-2.019532 1.429688-2.921876 2.269531-1.535156 2.179688-2.910156 4.46875-4.125 6.839844 0 .25-.289062.417969-.371093.683594l-41.230469 123.691406c-3.59375 10.796875 2.242188 22.472656 13.046875 26.070313 2.058594.6875 4.222656 1.042968 6.394531 1.054687h494.75c11.386719-.007813 20.613282-9.246094 20.601563-20.628906 0-2.207031-.355469-4.402344-1.054688-6.496094l-41.230469-123.691406c0-.265625-.285156-.433594-.371093-.683594-.589844-1.34375-1.320313-2.617187-2.183594-3.808594-1.035156-2.273437-2.789063-4.140625-4.988281-5.320312-1.0625-.882813-2.210938-1.65625-3.421875-2.308594-1.082031-.394531-2.191407-.703125-3.324219-.925781-1.449219-.46875-2.953125-.769532-4.46875-.890625-.289062 0-.519531-.164063-.78125-.164063-56.886719-.105468-102.976562-46.1875-103.074219-103.074218.070313-56.894532 46.171875-103.003907 103.074219-103.074219h350.445312c34.15625 0 61.847657-27.6875 61.847657-61.84375v-742.128907c-.003907-34.152343-27.691407-61.84375-61.847657-61.84375zm-494.753906 968.890626c.097656 73.800781 55.789063 135.664062 129.175782 143.503906l27.742187 83.257812h-437.523437l27.742187-83.257812c73.398437-7.820313 129.097656-69.699219 129.175781-143.503906.007813-38.824219-15.6875-76.003907-43.519531-103.074219h210.726563c-27.832032 27.070312-43.527344 64.25-43.519532 103.074219zm515.367188-164.917969c0 11.386719-9.226563 20.613281-20.613282 20.613281h-1113.195312c-11.386719 0-20.613281-9.226562-20.613281-20.613281v-61.84375h1154.421875zm-1154.421875-103.074219v-639.054688c0-11.382812 9.226562-20.617187 20.613281-20.617187h1113.195312c11.386719 0 20.613282 9.234375 20.613282 20.617187v639.054688zm0 0" fill="#000000"/><path d="m1113.195312 474.582031c0-11.378906-9.230468-20.613281-20.617187-20.613281h-82.457031c-11.386719 0-20.613282 9.234375-20.613282 20.613281v144.304688h-41.230468v-226.761719c0-11.386719-9.230469-20.617188-20.617188-20.617188h-82.457031c-11.386719 0-20.613281 9.230469-20.613281 20.617188v226.761719h-41.230469v-309.222657c0-11.386718-9.230469-20.613281-20.613281-20.613281h-82.460938c-11.378906 0-20.613281 9.226563-20.613281 20.613281v309.222657h-41.226563v-309.222657c0-11.386718-9.234374-20.613281-20.613281-20.613281h-82.460937c-11.382813 0-20.613282 9.226563-20.613282 20.613281v309.222657h-41.234374v-226.761719c0-11.386719-9.230469-20.617188-20.613282-20.617188h-82.460937c-11.386719 0-20.613281 9.230469-20.613281 20.617188v226.761719h-41.230469v-144.304688c0-11.378906-9.226563-20.613281-20.613281-20.613281h-82.460938c-11.382812 0-20.613281 9.234375-20.613281 20.613281v144.304688h-41.230469v-535.984375h-41.230469v556.597656c0 11.386719 9.230469 20.613281 20.617188 20.613281h1051.351562v-41.226562h-41.230469zm-907.046874 144.304688v-123.691407h41.226562v123.691407zm164.917968 0v-206.148438h41.226563v206.148438zm164.917969 0v-288.609375h41.226563v288.609375zm164.914063 0v-288.609375h41.230468v288.609375zm164.917968 0v-206.148438h41.230469v206.148438zm164.917969 0v-123.691407h41.230469v123.691407zm0 0" fill="#000000"/></g><g transform="matrix(-0.11718635261058807 0 0 0.11718635261058807 87.9994125366211 -24.999997282054665)" id="L1_1"><path d="M224,170.669h-42.667c-5.888,0-10.667,4.779-10.667,10.667v128c0,5.888,4.779,10.667,10.667,10.667H224     c5.888,0,10.667-4.779,10.667-10.667v-128C234.667,175.448,229.888,170.669,224,170.669z" fill="#000000"/><path d="M138.667,234.669H96c-5.888,0-10.667,4.779-10.667,10.667v64c0,5.888,4.779,10.667,10.667,10.667h42.667     c5.888,0,10.667-4.779,10.667-10.667v-64C149.333,239.448,144.555,234.669,138.667,234.669z" fill="#000000"/><path d="M309.333,106.669h-42.667c-5.888,0-10.667,4.779-10.667,10.667v192c0,5.888,4.779,10.667,10.667,10.667h42.667     c5.888,0,10.667-4.779,10.667-10.667v-192C320,111.448,315.221,106.669,309.333,106.669z" fill="#000000"/><path d="M505.749,475.587L378.411,348.248c30.123-36.779,48.256-83.755,48.256-134.912c0-117.632-95.701-213.333-213.333-213.333     S0,95.704,0,213.336s95.701,213.333,213.333,213.333c51.157,0,98.133-18.133,134.912-48.256l127.339,127.339     c4.16,4.16,9.621,6.251,15.083,6.251s10.923-2.091,15.083-6.251C514.091,497.411,514.091,483.928,505.749,475.587z      M213.333,384.003c-94.101,0-170.667-76.565-170.667-170.667S119.232,42.669,213.333,42.669S384,119.235,384,213.336     S307.435,384.003,213.333,384.003z" fill="#000000"/></g><g transform="matrix(0.125 0 0 0.125 83 189)" id="L1_2"><path d="M240,0C107.452,0,0,107.452,0,240s107.452,240,240,240s240-107.452,240-240C479.85,107.514,372.486,0.15,240,0z M240,464    C116.288,464,16,363.712,16,240S116.288,16,240,16s224,100.288,224,224C463.859,363.653,363.653,463.859,240,464z" fill="#000000"/><path d="M240,32C125.125,32,32,125.125,32,240s93.125,208,208,208s208-93.125,208-208C447.872,125.178,354.822,32.128,240,32z     M240,432c-106.039,0-192-85.961-192-192S133.961,48,240,48s192,85.961,192,192C431.877,345.987,345.987,431.877,240,432z" fill="#000000"/><rect x="56px" y="232px" width="32px" height="16px" fill="#000000"/><rect x="392px" y="232px" width="32px" height="16px" fill="#000000"/><rect x="78px" y="316px" width="32px" height="16px" transform="matrix(0.8661 -0.4999 0.4999 0.8661 -149.3202 90.6366)" fill="#000000"/><rect x="369px" y="147px" width="32px" height="16px" transform="matrix(0.8661 -0.4999 0.4999 0.8661 -26.3534 213.606)" fill="#000000"/><rect x="86px" y="140px" width="16px" height="32px" transform="matrix(0.4999 -0.8661 0.8661 0.4999 -87.8498 159.8599)" fill="#000000"/><rect x="377px" y="307px" width="16px" height="32px" transform="matrix(0.4999 -0.8661 0.8661 0.4999 -87.8083 495.888)" fill="#000000"/><rect x="147px" y="78px" width="16px" height="32px" transform="matrix(0.8661 -0.4999 0.4999 0.8661 -26.355 90.6278)" fill="#000000"/><rect x="232px" y="56px" width="16px" height="32px" fill="#000000"/><rect x="307px" y="86px" width="32px" height="16px" transform="matrix(0.4999 -0.8661 0.8661 0.4999 80.1741 327.8656)" fill="#000000"/><rect x="65px" y="183px" width="16px" height="24px" transform="matrix(0.2588 -0.9659 0.9659 0.2588 -134.0715 216.2285)" fill="#000000"/><rect x="398px" y="272px" width="16px" height="24px" transform="matrix(0.2588 -0.9659 0.9659 0.2588 26.191 603.1256)" fill="#000000"/><rect x="110px" y="106px" width="16px" height="24px" transform="matrix(0.7071 -0.7071 0.7071 0.7071 -49.0314 118.3792)" fill="#000000"/><rect x="187px" y="61px" width="16px" height="24px" transform="matrix(0.9659 -0.2588 0.2588 0.9659 -12.4583 53.1039)" fill="#000000"/><rect x="272px" y="65px" width="24px" height="16px" transform="matrix(0.2588 -0.9659 0.9659 0.2588 139.4867 329.5905)" fill="#000000"/><rect x="349px" y="110px" width="24px" height="16px" transform="matrix(0.7071 -0.7071 0.7071 0.7071 22.1981 290.3847)" fill="#000000"/><rect x="394px" y="187px" width="24px" height="16px" transform="matrix(0.9659 -0.2588 0.2588 0.9659 -36.7521 111.7907)" fill="#000000"/><rect x="61px" y="276px" width="24px" height="16px" transform="matrix(0.9659 -0.2588 0.2588 0.9659 -71.1225 28.8121)" fill="#000000"/><path d="M273.943,108.367c-72.737-18.735-146.889,25.041-165.625,97.777c-8.876,34.46-3.893,71.027,13.882,101.855    c2.324,3.757,7.255,4.919,11.012,2.594c3.598-2.226,4.841-6.869,2.836-10.594c-33.098-57.418-13.382-130.795,44.036-163.893    c57.418-33.098,130.795-13.382,163.893,44.036c15.681,27.203,20.075,59.468,12.24,89.873c-1.105,4.281,1.471,8.647,5.752,9.752    c4.281,1.105,8.647-1.471,9.752-5.752v-0.024C390.456,201.255,346.679,127.103,273.943,108.367z" fill="#000000"/><path d="M357.064,297.808l-88-72c-0.24-0.147-0.489-0.281-0.744-0.4c-8.031-15.689-27.259-21.897-42.947-13.866    c-15.689,8.031-21.897,27.259-13.866,42.947c5.159,10.078,15.271,16.668,26.573,17.319l111.2,39.72    c0.872,0.316,1.793,0.476,2.72,0.472c4.418-0.001,7.999-3.583,7.999-8.002C359.998,301.599,358.921,299.327,357.064,297.808z     M240,256c-8.837,0-16-7.163-16-16s7.163-16,16-16s16,7.163,16,16S248.837,256,240,256z M261.8,263.296    c4.423-4.143,7.571-9.464,9.072-15.336l40.328,32.952L261.8,263.296z" fill="#000000"/><path d="M272,320h-64c-22.091,0-40,17.909-40,40c0,22.091,17.909,40,40,40h64c22.091,0,40-17.909,40-40    C312,337.909,294.091,320,272,320z M272,384h-64c-13.255,0-24-10.745-24-24s10.745-24,24-24h64c13.255,0,24,10.745,24,24    S285.255,384,272,384z" fill="#000000"/><path d="M224,352h-16c-4.418,0-8,3.582-8,8s3.582,8,8,8h16c4.418,0,8-3.582,8-8S228.418,352,224,352z" fill="#000000"/><path d="M272,352h-16c-4.418,0-8,3.582-8,8s3.582,8,8,8h16c4.418,0,8-3.582,8-8S276.418,352,272,352z" fill="#000000"/></g><g transform="matrix(-0.1171872690320015 0 0 0.1171872690320015 326.99988174438477 241)" id="L1_5"><path d="M457.637,134.681c-29.976,0-54.363,24.387-54.363,54.363c0,10.933,3.255,21.114,8.831,29.647l-58.733,58.733    c-8.534-5.576-18.715-8.831-29.648-8.831c-11.329,0-21.858,3.488-30.576,9.441l-59.338-59.347    c5.575-8.533,8.828-18.713,8.828-29.644c0-29.976-24.387-54.363-54.363-54.363c-29.976,0-54.363,24.387-54.363,54.363    c0,10.931,3.254,21.108,8.827,29.641L84.004,277.42c-8.532-5.574-18.711-8.827-29.641-8.827C24.387,268.593,0,292.981,0,322.957    s24.387,54.363,54.363,54.363c29.976,0,54.363-24.387,54.363-54.363c0-10.933-3.255-21.114-8.831-29.648l58.733-58.733    c8.534,5.576,18.715,8.831,29.648,8.831c10.932,0,21.113-3.255,29.646-8.831l59.666,59.674    c-5.206,8.338-8.226,18.174-8.226,28.706c0,29.976,24.387,54.363,54.363,54.363s54.363-24.387,54.363-54.363    c0-10.931-3.254-21.109-8.827-29.641l58.736-58.736c8.533,5.574,18.712,8.827,29.641,8.827c29.976,0,54.363-24.387,54.363-54.363    C512.001,159.066,487.613,134.681,457.637,134.681z M54.363,354.849c-17.586,0-31.893-14.307-31.893-31.892    c0-17.586,14.307-31.893,31.893-31.893c17.585,0,31.893,14.307,31.893,31.893C86.256,340.542,71.949,354.849,54.363,354.849z     M188.276,220.936c-17.585,0-31.893-14.307-31.893-31.893c0-17.585,14.307-31.893,31.893-31.893    c17.586,0,31.893,14.307,31.893,31.893C220.169,206.629,205.862,220.936,188.276,220.936z M323.724,354.849    c-17.585,0-31.893-14.307-31.893-31.893s14.307-31.893,31.893-31.893c17.585,0,31.893,14.307,31.893,31.893    C355.616,340.542,341.309,354.849,323.724,354.849z M457.637,220.936c-17.585,0-31.893-14.307-31.893-31.893    c0-17.585,14.307-31.893,31.893-31.893c17.585,0,31.893,14.307,31.893,31.893C489.53,206.629,475.222,220.936,457.637,220.936z" fill="#000000"/><path d="M176.774,272.717c-4.388-4.387-11.501-4.387-15.889,0l-22.854,22.854c-4.387,4.387-4.387,11.501,0.001,15.889    c2.194,2.194,5.069,3.291,7.944,3.291s5.751-1.098,7.944-3.291l22.854-22.854C181.163,284.219,181.163,277.104,176.774,272.717z" fill="#000000"/><path d="M373.962,200.939c-4.388-4.387-11.5-4.387-15.89,0.001l-22.854,22.854c-4.387,4.387-4.387,11.501,0,15.889    c2.195,2.193,5.07,3.29,7.945,3.29c2.876,0,5.75-1.098,7.944-3.291l22.854-22.854C378.349,212.44,378.349,205.326,373.962,200.939    z" fill="#000000"/></g><g transform="matrix(0.1171872690320015 0 0 0.1171872690320015 197.00000586508577 156)" id="L1_6"><path d="M368.411,463.073c-3.015-4.628-9.21-5.937-13.838-2.922c-31.986,20.835-69.167,31.848-107.52,31.848    c-108.773,0-197.267-88.493-197.267-197.266c0-39.499,11.629-77.607,33.632-110.209c3.09-4.578,1.883-10.793-2.695-13.883    c-4.577-3.09-10.794-1.883-13.884,2.695C42.6,209.254,29.786,251.234,29.786,294.734c0,58.034,22.6,112.594,63.636,153.631    s95.597,63.636,153.631,63.636c42.239,0,83.193-12.134,118.437-35.09C370.119,473.897,371.427,467.701,368.411,463.073z"/><path d="M402.006,432.749c-3.944-3.867-10.275-3.804-14.143,0.139l-0.332,0.337c-3.89,3.92-3.865,10.252,0.055,14.143    c1.951,1.935,4.497,2.901,7.044,2.901c2.571,0,5.144-0.986,7.099-2.957l0.414-0.42    C406.011,442.948,405.95,436.617,402.006,432.749z"/><path d="M442.512,163.889c1.953,1.953,4.512,2.929,7.071,2.929c2.559,0,5.118-0.977,7.071-2.929l16.658-16.658    c11.869-11.871,11.869-31.186,0-43.057l-35.7-35.7c-5.751-5.75-13.397-8.917-21.528-8.917c-8.133,0-15.778,3.167-21.528,8.917    l-16.658,16.657c-1.875,1.875-2.929,4.419-2.929,7.071c0,2.652,1.054,5.196,2.929,7.071l4.729,4.729l-11.982,11.982    c-25.409-17.648-54.143-29.55-84.588-35.037V64.003h22.001c5.522,0,10-4.477,10-10V10c0-5.523-4.478-10-10-10H186.053    c-5.522,0-10,4.477-10,10v44.002c0,5.523,4.478,10,10,10h22.001v16.965c-28.622,5.19-55.935,16.09-80.46,32.262    c-4.611,3.041-5.884,9.243-2.844,13.855c3.042,4.611,9.245,5.884,13.855,2.843c32.202-21.235,69.704-32.459,108.451-32.459    c108.773,0,197.267,88.493,197.267,197.267c0,36.887-10.242,72.857-29.619,104.017c-2.916,4.69-1.479,10.856,3.212,13.774    c1.644,1.022,3.468,1.509,5.271,1.509c3.342,0,6.607-1.674,8.502-4.721c21.351-34.334,32.635-73.955,32.635-114.579    c0-44.813-13.487-87.547-38.521-123.59l11.982-11.982L442.512,163.889z M266.055,78.297c-6.284-0.541-12.619-0.83-19.001-0.83    c-6.369-0.001-12.707,0.281-19.001,0.828V64.003h38.001V78.297z M218.054,44.002h-22.001V20.001h102.004v24.001h-22.001H218.054z     M413.533,155.125c-4.061-4.825-8.336-9.51-12.849-14.023c-4.512-4.512-9.197-8.787-14.023-12.849l10.107-10.107l26.871,26.871    L413.533,155.125z M403.841,96.933c-0.002-0.002-0.004-0.003-0.006-0.005l-4.723-4.723l9.587-9.586    c1.973-1.973,4.595-3.059,7.385-3.059c2.789,0,5.412,1.086,7.385,3.06l35.7,35.699c4.072,4.072,4.072,10.699,0,14.772    l-9.586,9.585l-4.714-4.714c-0.005-0.005-0.009-0.01-0.014-0.015L403.841,96.933z"/><path d="M247.055,152.992c-5.522,0-10,4.477-10,10v22.001c0,5.523,4.477,10,10,10c5.522,0,10-4.477,10-10v-22.001    C257.055,157.469,252.577,152.992,247.055,152.992z"/><path d="M347.278,194.508c-1.86-1.86-4.439-2.93-7.07-2.93c-2.63,0-5.21,1.07-7.069,2.93c-1.86,1.86-2.931,4.44-2.931,7.07    c0,2.64,1.07,5.21,2.931,7.07c1.859,1.86,4.439,2.93,7.069,2.93c2.631,0,5.21-1.07,7.07-2.93c1.86-1.86,2.93-4.44,2.93-7.07    S349.139,196.368,347.278,194.508z"/><path d="M378.795,284.733h-22.001c-5.522,0-10,4.477-10,10s4.478,10,10,10h22.001c5.522,0,10-4.477,10-10    C388.795,289.21,384.317,284.733,378.795,284.733z"/><path d="M347.278,380.815c-1.86-1.86-4.439-2.93-7.07-2.93c-2.63,0-5.21,1.07-7.069,2.93c-1.86,1.86-2.931,4.44-2.931,7.07    c0,2.64,1.07,5.22,2.931,7.07c1.859,1.87,4.439,2.93,7.069,2.93c2.631,0,5.21-1.06,7.07-2.93c1.86-1.86,2.93-4.43,2.93-7.07    C350.208,385.255,349.139,382.685,347.278,380.815z"/><path d="M247.055,394.473c-5.522,0-10,4.477-10,10v22.001c0,5.523,4.478,10,10,10s10-4.477,10-10v-22.001    C257.055,398.951,252.577,394.473,247.055,394.473z"/><path d="M160.97,380.815c-1.861-1.86-4.44-2.93-7.07-2.93c-2.63,0-5.21,1.07-7.069,2.93c-1.86,1.86-2.931,4.44-2.931,7.07    c0,2.64,1.07,5.21,2.931,7.07c1.859,1.87,4.439,2.93,7.069,2.93c2.63,0,5.21-1.06,7.07-2.93c1.86-1.86,2.93-4.43,2.93-7.07    C163.901,385.255,162.831,382.675,160.97,380.815z"/><path d="M137.314,284.733h-22.001c-5.522,0-10,4.477-10,10c0,5.523,4.478,10,10,10h22.001c5.522,0,10-4.477,10-10    C147.315,289.21,142.837,284.733,137.314,284.733z"/><path d="M160.97,194.508c-1.86-1.86-4.44-2.93-7.07-2.93c-2.63,0-5.21,1.07-7.069,2.93c-1.86,1.86-2.931,4.44-2.931,7.07    s1.07,5.21,2.931,7.07c1.859,1.86,4.439,2.93,7.069,2.93c2.63,0,5.21-1.07,7.07-2.93c1.86-1.86,2.93-4.44,2.93-7.07    S162.831,196.368,160.97,194.508z"/><path d="M325.133,216.654c-3.256-3.255-8.312-3.867-12.25-1.483l-82.548,49.974c-0.893,0.507-2.143,1.242-2.989,1.908    c-8.641,6.171-14.292,16.275-14.292,27.679c0,18.75,15.253,34.002,34.001,34.002c11.36,0,21.431-5.606,27.608-14.192    c0.739-0.915,1.428-2.116,1.989-3.105l49.964-82.533C329,224.967,328.387,219.91,325.133,216.654z M259.422,301.277l-0.826,1.364    c-2.526,3.675-6.755,6.093-11.542,6.093c-7.719,0-14-6.28-14-14c0-4.788,2.419-9.019,6.096-11.545l1.356-0.821    c1.955-1.04,4.182-1.634,6.547-1.634c7.72,0,14.001,6.28,14.001,14.001C261.054,297.097,260.46,299.323,259.422,301.277z     M275.049,275.466c-2.355-3.411-5.315-6.371-8.727-8.726l22.115-13.388L275.049,275.466z"/><path d="M247.055,121.499c-95.523,0-173.237,77.712-173.237,173.235S151.531,467.97,247.055,467.97    s173.236-77.713,173.236-173.236S342.578,121.499,247.055,121.499z M247.055,447.969c-84.494,0-153.236-68.741-153.236-153.235    s68.741-153.235,153.236-153.235c84.494,0,153.235,68.741,153.235,153.235S331.549,447.969,247.055,447.969z"/><path d="M108.178,140.495c-1.861-1.86-4.44-2.93-7.07-2.93c-2.63,0-5.21,1.07-7.069,2.93c-1.86,1.86-2.931,4.44-2.931,7.07    c0,2.64,1.07,5.21,2.931,7.07c1.859,1.86,4.439,2.93,7.069,2.93c2.63,0,5.21-1.07,7.07-2.93c1.86-1.86,2.93-4.44,2.93-7.07    C111.108,144.936,110.039,142.356,108.178,140.495z"/></g><g transform="matrix(1.2384923696517944 0 0 1.2384923696517944 140 281.0000015874232)" id="L1_7"><path d="M48.446,27.855 48.446,4.35 11.757,4.35 11.757,16.22 14.441,16.22 14.441,7.034 45.762,7.034 45.762,24.394      31.137,24.394 31.137,30.617 40.823,30.617 40.823,29.367 33.165,29.367 33.165,27.855z"/><path d="M17.904,34.635 17.177,34.635 14.411,34.635 14.411,35.795 21.149,35.795 21.149,36.301 14.411,36.301      14.411,37.348 33.971,37.348 33.971,34.82 30.297,34.635z"/><path d="M0,44.096h13.537V23.787H0V44.096z M7.055,43.076c-0.361,0-0.653-0.295-0.653-0.652c0-0.361,0.292-0.652,0.653-0.652     c0.36,0,0.652,0.291,0.652,0.652C7.707,42.783,7.415,43.076,7.055,43.076z M1.957,25.744h9.625l-0.001,14.982H1.957V25.744z"/><path d="M6.696,18.938 28.389,18.938 28.389,31.943 14.411,31.943 14.411,33.854 30.301,33.854 30.301,17.029      4.785,17.029 4.785,22.919 6.696,22.919z"/></g><path d="M51.586,10.029c-0.333-0.475-0.897-0.689-1.449-0.607c-0.021-0.005-0.042-0.014-0.063-0.017L27.469,6.087    c-0.247-0.037-0.499-0.01-0.734,0.076L8.63,12.799c-0.008,0.003-0.015,0.008-0.023,0.011c-0.019,0.008-0.037,0.02-0.057,0.027    c-0.099,0.044-0.191,0.096-0.276,0.157c-0.026,0.019-0.051,0.038-0.077,0.059c-0.093,0.076-0.178,0.159-0.249,0.254    c-0.004,0.006-0.01,0.009-0.014,0.015L0.289,23.78c-0.293,0.401-0.369,0.923-0.202,1.391c0.167,0.469,0.556,0.823,1.038,0.947    l6.634,1.713v16.401c0,0.659,0.431,1.242,1.062,1.435l24.29,7.422c0.008,0.004,0.017,0.001,0.025,0.005    c0.13,0.036,0.266,0.059,0.402,0.06c0.003,0,0.007,0.002,0.011,0.002l0,0h0.001c0.143,0,0.283-0.026,0.423-0.067    c0.044-0.014,0.085-0.033,0.13-0.052c0.059-0.022,0.117-0.038,0.175-0.068l17.43-9.673c0.477-0.265,0.772-0.767,0.772-1.312    V25.586l5.896-2.83c0.397-0.19,0.69-0.547,0.802-0.973c0.111-0.427,0.03-0.88-0.223-1.241L51.586,10.029z M27.41,9.111    l17.644,2.59L33.35,17.143l-18.534-3.415L27.41,9.111z M9.801,15.854l21.237,3.914l-6.242,9.364l-20.78-5.365L9.801,15.854z     M10.759,43.122V28.605l14.318,3.697c0.125,0.031,0.25,0.048,0.375,0.048c0.493,0,0.965-0.244,1.248-0.668l5.349-8.023v25.968    L10.759,43.122z M49.479,41.1l-14.431,8.007V25.414l2.635,5.599c0.171,0.361,0.479,0.641,0.854,0.773    c0.163,0.06,0.333,0.087,0.502,0.087c0.223,0,0.444-0.05,0.649-0.146l9.789-4.698L49.479,41.1L49.479,41.1z M39.755,28.368    l-4.207-8.938L49.85,12.78l5.634,8.037L39.755,28.368z" transform="matrix(1.0130515098571777 0 0 1.0130515098571777 36 78.99999935076653)" id="L1_8"/><g transform="matrix(0.1171875 0 0 0.1171875 315 156.00000082969655)" id="L1_10"><path d="M505.403,406.394L295.389,58.102c-8.274-13.721-23.367-22.245-39.39-22.245c-16.023,0-31.116,8.524-39.391,22.246    L6.595,406.394c-8.551,14.182-8.804,31.95-0.661,46.37c8.145,14.42,23.491,23.378,40.051,23.378h420.028    c16.56,0,31.907-8.958,40.052-23.379C514.208,438.342,513.955,420.574,505.403,406.394z M477.039,436.372    c-2.242,3.969-6.467,6.436-11.026,6.436H45.985c-4.559,0-8.784-2.466-11.025-6.435c-2.242-3.97-2.172-8.862,0.181-12.765    L245.156,75.316c2.278-3.777,6.433-6.124,10.844-6.124c4.41,0,8.565,2.347,10.843,6.124l210.013,348.292    C479.211,427.512,479.281,432.403,477.039,436.372z"/><path d="M256.154,173.005c-12.68,0-22.576,6.804-22.576,18.866c0,36.802,4.329,89.686,4.329,126.489    c0.001,9.587,8.352,13.607,18.248,13.607c7.422,0,17.937-4.02,17.937-13.607c0-36.802,4.329-89.686,4.329-126.489    C278.421,179.81,268.216,173.005,256.154,173.005z"/><path d="M256.465,353.306c-13.607,0-23.814,10.824-23.814,23.814c0,12.68,10.206,23.814,23.814,23.814    c12.68,0,23.505-11.134,23.505-23.814C279.97,364.13,269.144,353.306,256.465,353.306z"/></g><g transform="matrix(0.7343031764030457 0 0 0.7343031764030457 293.90811717510223 63.908117175102234)" id="L1_11"><path d="M26,0C11.664,0,0,11.663,0,26s11.664,26,26,26s26-11.663,26-26S40.336,0,26,0z M26,50C12.767,50,2,39.233,2,26   S12.767,2,26,2s24,10.767,24,24S39.233,50,26,50z"/><path d="M38.252,15.336l-15.369,17.29l-9.259-7.407c-0.43-0.345-1.061-0.274-1.405,0.156c-0.345,0.432-0.275,1.061,0.156,1.406   l10,8C22.559,34.928,22.78,35,23,35c0.276,0,0.551-0.114,0.748-0.336l16-18c0.367-0.412,0.33-1.045-0.083-1.411   C39.251,14.885,38.62,14.922,38.252,15.336z"/></g><g transform="matrix(0.1171875 0 0 0.1171875 255 -23)" id="L1_12"><path d="M499.904,456.607H12.096C5.415,456.607,0,462.022,0,468.703c0,6.679,5.415,12.096,12.096,12.096h487.808    c6.679,0,12.096-5.417,12.096-12.096C512,462.023,506.585,456.607,499.904,456.607z"/><path d="M468.37,88.305h-84.948c-6.679,0-12.096,5.417-12.096,12.096v82.24h-60.757V43.297c0-6.679-5.417-12.096-12.096-12.096    h-84.95c-6.679,0-12.096,5.417-12.096,12.096v228.882h-60.757V169.36c0-6.681-5.417-12.096-12.096-12.096H43.626    c-6.681,0-12.096,5.415-12.096,12.096v231.563c0,6.681,5.417,12.096,12.096,12.096h84.948h84.948h84.95h84.949h84.948    c6.681,0,12.096-5.417,12.096-12.096V100.401C480.466,93.722,475.051,88.305,468.37,88.305z M116.479,388.827H55.722V181.456    h60.757V388.827z M201.429,388.827h-60.757v-92.456h60.757V388.827z M286.378,194.737v194.09H225.62V55.393h60.758V194.737z     M371.328,388.827h-60.757V206.833h60.757V388.827z M456.276,388.827H395.52v-194.09v-82.24h60.757V388.827z"/></g><g transform="matrix(0.6421613097190857 0 0 0.6421613097190857 22.73516070842743 255.73516070842743)" id="L1_13"><path d="M10.5,6.5C8.019,6.5,6,8.519,6,11s2.019,4.5,4.5,4.5S15,13.481,15,11S12.981,6.5,10.5,6.5z M10.5,13.5   C9.122,13.5,8,12.379,8,11s1.122-2.5,2.5-2.5S13,9.621,13,11S11.878,13.5,10.5,13.5z"/><circle cx="50" cy="9" r="1"/><circle cx="46" cy="9" r="1"/><circle cx="52" cy="12" r="1"/><circle cx="48" cy="12" r="1"/><circle cx="42" cy="9" r="1"/><circle cx="44" cy="12" r="1"/><circle cx="38" cy="9" r="1"/><circle cx="40" cy="12" r="1"/><circle cx="34" cy="9" r="1"/><circle cx="36" cy="12" r="1"/><path d="M60,16.892V5.108C60,2.567,57.933,0.5,55.392,0.5H4.608C2.067,0.5,0,2.567,0,5.108v11.783c0,1.469,0.703,2.764,1.777,3.608   C0.703,21.344,0,22.64,0,24.108v11.783c0,1.469,0.703,2.764,1.777,3.608C0.703,40.344,0,41.64,0,43.108v11.783   C0,57.433,2.067,59.5,4.608,59.5h50.783c2.541,0,4.608-2.067,4.608-4.608V43.108c0-1.469-0.703-2.764-1.777-3.608   C59.297,38.656,60,37.36,60,35.892V24.108c0-1.469-0.703-2.764-1.777-3.608C59.297,19.656,60,18.36,60,16.892z M58,43.108v11.783   c0,1.438-1.17,2.608-2.608,2.608H4.608C3.17,57.5,2,56.33,2,54.892V43.108C2,41.67,3.17,40.5,4.608,40.5h50.783   C56.83,40.5,58,41.67,58,43.108z M58,24.108v11.783c0,1.438-1.17,2.608-2.608,2.608H4.608C3.17,38.5,2,37.33,2,35.892V24.108   C2,22.67,3.17,21.5,4.608,21.5h50.783C56.83,21.5,58,22.67,58,24.108z M4.608,19.5C3.17,19.5,2,18.33,2,16.892V5.108   C2,3.67,3.17,2.5,4.608,2.5h50.783C56.83,2.5,58,3.67,58,5.108v11.783c0,1.438-1.17,2.608-2.608,2.608H4.608z"/><path d="M10.5,34.5c2.481,0,4.5-2.019,4.5-4.5s-2.019-4.5-4.5-4.5S6,27.519,6,30S8.019,34.5,10.5,34.5z M10.5,27.5   c1.378,0,2.5,1.121,2.5,2.5s-1.122,2.5-2.5,2.5S8,31.379,8,30S9.122,27.5,10.5,27.5z"/><circle cx="50" cy="28" r="1"/><circle cx="46" cy="28" r="1"/><circle cx="52" cy="31" r="1"/><circle cx="48" cy="31" r="1"/><circle cx="42" cy="28" r="1"/><circle cx="44" cy="31" r="1"/><circle cx="38" cy="28" r="1"/><circle cx="40" cy="31" r="1"/><circle cx="34" cy="28" r="1"/><circle cx="36" cy="31" r="1"/><path d="M10.5,53.5c2.481,0,4.5-2.019,4.5-4.5s-2.019-4.5-4.5-4.5S6,46.519,6,49S8.019,53.5,10.5,53.5z M10.5,46.5   c1.378,0,2.5,1.121,2.5,2.5s-1.122,2.5-2.5,2.5S8,50.379,8,49S9.122,46.5,10.5,46.5z"/><circle cx="50" cy="47" r="1"/><circle cx="46" cy="47" r="1"/><circle cx="52" cy="50" r="1"/><circle cx="48" cy="50" r="1"/><circle cx="42" cy="47" r="1"/><circle cx="44" cy="50" r="1"/><circle cx="38" cy="47" r="1"/><circle cx="40" cy="50" r="1"/><circle cx="34" cy="47" r="1"/><circle cx="36" cy="50" r="1"/></g></defs><g fi:class="KUsePattern" opacity="0.05"><pattern id="pattern_L1_0" width="350" height="350" patternUnits="userSpaceOnUse"><use xlink:href="#L1_0" x="-350" y="-350"/><use xlink:href="#L1_0" x="0" y="-350"/><use xlink:href="#L1_0" x="350" y="-350"/><use xlink:href="#L1_0" x="-350" y="0"/><use xlink:href="#L1_0" x="0" y="0"/><use xlink:href="#L1_0" x="350" y="0"/><use xlink:href="#L1_0" x="-350" y="350"/><use xlink:href="#L1_0" x="0" y="350"/><use xlink:href="#L1_0" x="350" y="350"/></pattern><rect x="0" y="0" width="100%" height="100%" fill="url(#pattern_L1_0)"/></g><g fi:class="KUsePattern" opacity="0.05"><pattern id="pattern_L1_1" width="350" height="350" patternUnits="userSpaceOnUse"><use xlink:href="#L1_1" x="-350" y="-350"/><use xlink:href="#L1_1" x="0" y="-350"/><use xlink:href="#L1_1" x="350" y="-350"/><use xlink:href="#L1_1" x="-350" y="0"/><use xlink:href="#L1_1" x="0" y="0"/><use xlink:href="#L1_1" x="350" y="0"/><use xlink:href="#L1_1" x="-350" y="350"/><use xlink:href="#L1_1" x="0" y="350"/><use xlink:href="#L1_1" x="350" y="350"/></pattern><rect x="0" y="0" width="100%" height="100%" fill="url(#pattern_L1_1)"/></g><g fi:class="KUsePattern" opacity="0.06"><pattern id="pattern_L1_2" width="350" height="350" patternUnits="userSpaceOnUse"><use xlink:href="#L1_2" x="-350" y="-350"/><use xlink:href="#L1_2" x="0" y="-350"/><use xlink:href="#L1_2" x="350" y="-350"/><use xlink:href="#L1_2" x="-350" y="0"/><use xlink:href="#L1_2" x="0" y="0"/><use xlink:href="#L1_2" x="350" y="0"/><use xlink:href="#L1_2" x="-350" y="350"/><use xlink:href="#L1_2" x="0" y="350"/><use xlink:href="#L1_2" x="350" y="350"/></pattern><rect x="0" y="0" width="100%" height="100%" fill="url(#pattern_L1_2)"/></g><g fi:class="KUsePattern" opacity="0.06"><pattern id="pattern_L1_5" width="350" height="350" patternUnits="userSpaceOnUse"><use xlink:href="#L1_5" x="-350" y="-350"/><use xlink:href="#L1_5" x="0" y="-350"/><use xlink:href="#L1_5" x="350" y="-350"/><use xlink:href="#L1_5" x="-350" y="0"/><use xlink:href="#L1_5" x="0" y="0"/><use xlink:href="#L1_5" x="350" y="0"/><use xlink:href="#L1_5" x="-350" y="350"/><use xlink:href="#L1_5" x="0" y="350"/><use xlink:href="#L1_5" x="350" y="350"/></pattern><rect x="0" y="0" width="100%" height="100%" fill="url(#pattern_L1_5)"/></g><g fi:class="KUsePattern" opacity="0.05"><pattern id="pattern_L1_6" width="350" height="350" patternUnits="userSpaceOnUse"><use xlink:href="#L1_6" x="-350" y="-350"/><use xlink:href="#L1_6" x="0" y="-350"/><use xlink:href="#L1_6" x="350" y="-350"/><use xlink:href="#L1_6" x="-350" y="0"/><use xlink:href="#L1_6" x="0" y="0"/><use xlink:href="#L1_6" x="350" y="0"/><use xlink:href="#L1_6" x="-350" y="350"/><use xlink:href="#L1_6" x="0" y="350"/><use xlink:href="#L1_6" x="350" y="350"/></pattern><rect x="0" y="0" width="100%" height="100%" fill="url(#pattern_L1_6)"/></g><g fi:class="KUsePattern" opacity="0.05"><pattern id="pattern_L1_7" width="350" height="350" patternUnits="userSpaceOnUse"><use xlink:href="#L1_7" x="-350" y="-350"/><use xlink:href="#L1_7" x="0" y="-350"/><use xlink:href="#L1_7" x="350" y="-350"/><use xlink:href="#L1_7" x="-350" y="0"/><use xlink:href="#L1_7" x="0" y="0"/><use xlink:href="#L1_7" x="350" y="0"/><use xlink:href="#L1_7" x="-350" y="350"/><use xlink:href="#L1_7" x="0" y="350"/><use xlink:href="#L1_7" x="350" y="350"/></pattern><rect x="0" y="0" width="100%" height="100%" fill="url(#pattern_L1_7)"/></g><g fi:class="KUsePattern" opacity="0.05"><pattern id="pattern_L1_8" width="350" height="350" patternUnits="userSpaceOnUse"><use xlink:href="#L1_8" x="-350" y="-350"/><use xlink:href="#L1_8" x="0" y="-350"/><use xlink:href="#L1_8" x="350" y="-350"/><use xlink:href="#L1_8" x="-350" y="0"/><use xlink:href="#L1_8" x="0" y="0"/><use xlink:href="#L1_8" x="350" y="0"/><use xlink:href="#L1_8" x="-350" y="350"/><use xlink:href="#L1_8" x="0" y="350"/><use xlink:href="#L1_8" x="350" y="350"/></pattern><rect x="0" y="0" width="100%" height="100%" fill="url(#pattern_L1_8)"/></g><g fi:class="KUsePattern" opacity="0.05"><pattern id="pattern_L1_10" width="350" height="350" patternUnits="userSpaceOnUse"><use xlink:href="#L1_10" x="-350" y="-350"/><use xlink:href="#L1_10" x="0" y="-350"/><use xlink:href="#L1_10" x="350" y="-350"/><use xlink:href="#L1_10" x="-350" y="0"/><use xlink:href="#L1_10" x="0" y="0"/><use xlink:href="#L1_10" x="350" y="0"/><use xlink:href="#L1_10" x="-350" y="350"/><use xlink:href="#L1_10" x="0" y="350"/><use xlink:href="#L1_10" x="350" y="350"/></pattern><rect x="0" y="0" width="100%" height="100%" fill="url(#pattern_L1_10)"/></g><g fi:class="KUsePattern" opacity="0.05"><pattern id="pattern_L1_11" width="350" height="350" patternUnits="userSpaceOnUse"><use xlink:href="#L1_11" x="-350" y="-350"/><use xlink:href="#L1_11" x="0" y="-350"/><use xlink:href="#L1_11" x="350" y="-350"/><use xlink:href="#L1_11" x="-350" y="0"/><use xlink:href="#L1_11" x="0" y="0"/><use xlink:href="#L1_11" x="350" y="0"/><use xlink:href="#L1_11" x="-350" y="350"/><use xlink:href="#L1_11" x="0" y="350"/><use xlink:href="#L1_11" x="350" y="350"/></pattern><rect x="0" y="0" width="100%" height="100%" fill="url(#pattern_L1_11)"/></g><g fi:class="KUsePattern" opacity="0.06"><pattern id="pattern_L1_12" width="350" height="350" patternUnits="userSpaceOnUse"><use xlink:href="#L1_12" x="-350" y="-350"/><use xlink:href="#L1_12" x="0" y="-350"/><use xlink:href="#L1_12" x="350" y="-350"/><use xlink:href="#L1_12" x="-350" y="0"/><use xlink:href="#L1_12" x="0" y="0"/><use xlink:href="#L1_12" x="350" y="0"/><use xlink:href="#L1_12" x="-350" y="350"/><use xlink:href="#L1_12" x="0" y="350"/><use xlink:href="#L1_12" x="350" y="350"/></pattern><rect x="0" y="0" width="100%" height="100%" fill="url(#pattern_L1_12)"/></g><g fi:class="KUsePattern" opacity="0.05"><pattern id="pattern_L1_13" width="350" height="350" patternUnits="userSpaceOnUse"><use xlink:href="#L1_13" x="-350" y="-350"/><use xlink:href="#L1_13" x="0" y="-350"/><use xlink:href="#L1_13" x="350" y="-350"/><use xlink:href="#L1_13" x="-350" y="0"/><use xlink:href="#L1_13" x="0" y="0"/><use xlink:href="#L1_13" x="350" y="0"/><use xlink:href="#L1_13" x="-350" y="350"/><use xlink:href="#L1_13" x="0" y="350"/><use xlink:href="#L1_13" x="350" y="350"/></pattern><rect x="0" y="0" width="100%" height="100%" fill="url(#pattern_L1_13)"/></g></svg>